# xmcd
#
# Track frame offsets:
#	150
#	19610
#	34758
#	59915
#	75460
#	94407
#	111449
#	127860
#	145297
#	169118
#	188358
#	206896
#	223281
#	239054
#	254759
#	270185
#	282941
#	293673
#	305098
#	317107
#
# Disc length: 4419 seconds
#
# Revision: 0
# Processed by: cddbd v1.4PL0 Copyright (c) Steve Scherf et al.
# Submitted via: audiograbber 1.80
#
DISCID=38114114
DTITLE=И.Кучин - Лучшее собрание сочинений
DYEAR=1900
DGENRE=
TTITLE0=В таверне
TTITLE1=А на черных ресницах
TTITLE2=Хрустальная ваза
TTITLE3=Запретная зона
TTITLE4=Крестовая печать
TTITLE5=Судьба воровская
TTITLE6=Чикаго
TTITLE7=Бандитский нож
TTITLE8=Человек в телогрейке
TTITLE9=Свидание
TTITLE10=Изба
TTITLE11=Судьба злодейка
TTITLE12=Сентиментальный детектив ч.1
TTITLE13=Сентиментальный детектив ч.2
TTITLE14=Вор и судья
TTITLE15=Душа-колючка
TTITLE16=Ах, январь мой
TTITLE17=Шняга
TTITLE18=Босяцкая
TTITLE19=Сон
EXTD=
EXTT0=
EXTT1=
EXTT2=
EXTT3=
EXTT4=
EXTT5=
EXTT6=
EXTT7=
EXTT8=
EXTT9=
EXTT10=
EXTT11=
EXTT12=
EXTT13=
EXTT14=
EXTT15=
EXTT16=
EXTT17=
EXTT18=
EXTT19=
PLAYORDER=
